<svg width="9" height="9" viewBox="0 0 9 9" fill="none" xmlns="http://www.w3.org/2000/svg">
<path d="M8.74007 4.85187C8.73711 3.9391 8.41734 3.05555 7.83519 2.35161C7.25304 1.64767 6.44448 1.16685 5.54713 0.990971C4.64979 0.815095 3.71911 0.955046 2.9135 1.38699C2.10789 1.81893 1.47712 2.51619 1.12859 3.36006C0.780047 4.20394 0.735284 5.1423 1.00188 6.01543C1.26847 6.88855 1.82995 7.64249 2.59077 8.14891C3.3516 8.65533 4.26475 8.88293 5.17479 8.79299C6.08482 8.70305 6.93549 8.30111 7.58205 7.6556C7.95657 7.29189 8.25252 6.85553 8.45167 6.37334C8.65083 5.89114 8.74899 5.37335 8.74007 4.85187Z" fill="#4C1383"/>
</svg>
