<svg width="32" height="34" viewBox="0 0 32 34" fill="none" xmlns="http://www.w3.org/2000/svg">
<path d="M19.9503 4.71743L16.0284 0L12.0497 4.71743L6.13855 3.22166L5.68384 9.37733L0 11.736L3.23979 17.0288L0 22.264L5.68384 24.6227L6.13855 30.7783L12.0497 29.2826L16.0284 34L19.9503 29.2826L25.8615 30.7783L26.3162 24.6227L32 22.264L28.7602 17.0288L32 11.736L26.3162 9.37733L25.8615 3.22166L19.9503 4.71743Z" fill="white" fill-opacity="0.8"/>
<path d="M18.5999 10.0698L16.2877 7.28857L13.942 10.0698L10.457 9.18795L10.1889 12.8171L6.83789 14.2077L8.74796 17.3282L6.83789 20.4146L10.1889 21.8053L10.457 25.4344L13.942 24.5526L16.2877 27.3338L18.5999 24.5526L22.0849 25.4344L22.353 21.8053L25.704 20.4146L23.7939 17.3282L25.704 14.2077L22.353 12.8171L22.0849 9.18795L18.5999 10.0698Z" fill="white"/>
</svg>
